<?xml version="1.0" encoding="UTF-8"?>
<svg version="1.1" xmlns="http://www.w3.org/2000/svg" width="32" height="32">
<path d="M0 0 C3.92061103 2.19278684 6.97809862 4.95619724 9 9 C10.34009135 20.6039728 10.34009135 20.6039728 7.5078125 25.66796875 C4.31531972 29.30423128 1.94759708 31.77508065 -2.9765625 32.34375 C-14.03729021 32.81744284 -14.03729021 32.81744284 -18.8125 28.625 C-23.61624433 23.64713274 -23.50615879 19.37124985 -23.4921875 12.57421875 C-22.75174943 7.19722801 -20.18398445 4.28471177 -16 1 C-11.26503433 -1.36748284 -5.10642777 -0.70318022 0 0 Z " fill="#1D84C0" transform="translate(23,0)"/>
<path d="M0 0 C0.144375 1.0725 0.28875 2.145 0.4375 3.25 C0.83749442 5.91662949 1.27591924 8.41399729 2 11 C0.68 11 -0.64 11 -2 11 C-2 14.3 -2 17.6 -2 21 C-1.34 21 -0.68 21 0 21 C0 19.68 0 18.36 0 17 C0.66 17 1.32 17 2 17 C4.25684543 22.36000789 5.36263859 26.1977825 5 32 C0.46058835 32.5860306 -3.4060784 32.98425305 -7.41015625 30.51171875 C-13.77704594 24.93057952 -13.77704594 24.93057952 -14.34375 20.0234375 C-14.81744284 8.96270979 -14.81744284 8.96270979 -10.625 4.1875 C-7.03218104 0.72035578 -4.99995847 -0.13157785 0 0 Z " fill="#1E82C2" transform="translate(14,0)"/>
<path d="M0 0 C2.31 0 4.62 0 7 0 C9.42857143 6.28571429 9.42857143 6.28571429 8 10 C7.01 10 6.02 10 5 10 C4.67 8.68 4.34 7.36 4 6 C3.34 6 2.68 6 2 6 C2 7.32 2 8.64 2 10 C1.34 10 0.68 10 0 10 C-0.74926071 6.33694766 -1.2380014 3.57644848 0 0 Z " fill="#79CDD1" transform="translate(12,11)"/>
<path d="M0 0 C0.66 0.33 1.32 0.66 2 1 C2.703125 3.21484375 2.703125 3.21484375 3.25 5.9375 C3.44078125 6.83339844 3.6315625 7.72929688 3.828125 8.65234375 C3.88484375 9.42707031 3.9415625 10.20179687 4 11 C3.34 11.66 2.68 12.32 2 13 C1.46605821 11.5882217 0.94834896 10.17029756 0.4375 8.75 C0.14746094 7.96109375 -0.14257812 7.1721875 -0.44140625 6.359375 C-1.04522837 3.80896548 -0.8473932 2.44677771 0 0 Z " fill="#178BBA" transform="translate(14,0)"/>
</svg>
