<svg width="166" height="36" viewBox="0 0 166 36" fill="none" xmlns="http://www.w3.org/2000/svg">
<path d="M24.4735 28.6172L19.0941 8.97895H20.916L25.3653 25.8651H25.5187L29.968 8.97895H32.0393L36.4885 25.8651H36.642L41.0913 8.97895H42.9227L37.5433 28.6172H35.6255L31.0708 11.9611H30.9461L26.3913 28.6172H24.4735ZM48.5515 28.9528C47.6629 28.9528 46.851 28.7802 46.1159 28.435C45.3807 28.0834 44.7958 27.5784 44.3611 26.9199C43.9264 26.2551 43.709 25.4496 43.709 24.5035C43.709 23.7748 43.8465 23.1611 44.1214 22.6624C44.3963 22.1638 44.7862 21.7547 45.2912 21.435C45.7962 21.1154 46.394 20.8629 47.0844 20.6775C47.7748 20.4921 48.5355 20.3483 49.3665 20.246C50.1912 20.1437 50.888 20.0542 51.4569 19.9775C52.0323 19.9008 52.4702 19.7793 52.7706 19.6131C53.0711 19.4469 53.2213 19.1784 53.2213 18.8077V18.4625C53.2213 17.4588 52.9209 16.6693 52.32 16.094C51.7254 15.5122 50.8688 15.2214 49.7501 15.2214C48.6889 15.2214 47.8227 15.4547 47.1515 15.9214C46.4867 16.388 46.02 16.9378 45.7515 17.5707L44.131 16.9857C44.4634 16.1803 44.9237 15.5378 45.5118 15.0584C46.0999 14.5725 46.7583 14.2241 47.4871 14.0132C48.2159 13.7958 48.9542 13.6871 49.7022 13.6871C50.2647 13.6871 50.8496 13.7607 51.4569 13.9077C52.0706 14.0547 52.6396 14.3104 53.1638 14.6748C53.688 15.0328 54.1131 15.5346 54.4391 16.1803C54.7651 16.8195 54.9282 17.6314 54.9282 18.6159V28.6172H53.2213V26.2871H53.1158C52.9113 26.7218 52.6076 27.1437 52.2049 27.5528C51.8021 27.9619 51.2971 28.2976 50.6898 28.5597C50.0825 28.8218 49.3697 28.9528 48.5515 28.9528ZM48.7816 27.3898C49.6894 27.3898 50.4757 27.1884 51.1405 26.7857C51.8053 26.383 52.3168 25.8492 52.6747 25.1843C53.0391 24.5131 53.2213 23.7748 53.2213 22.9693V20.8405C53.0935 20.962 52.8793 21.0707 52.5789 21.1665C52.2848 21.2624 51.9428 21.3487 51.5528 21.4254C51.1693 21.4958 50.7857 21.5565 50.4022 21.6076C50.0186 21.6588 49.6734 21.7035 49.3665 21.7419C48.5355 21.8442 47.8259 22.004 47.2378 22.2213C46.6497 22.4387 46.199 22.7391 45.8857 23.1227C45.5725 23.4999 45.4159 23.9857 45.4159 24.5802C45.4159 25.4752 45.7355 26.1688 46.3748 26.661C47.014 27.1469 47.8163 27.3898 48.7816 27.3898ZM59.4685 28.6172V13.8885H61.1274V16.1515H61.2521C61.5462 15.41 62.0576 14.8122 62.7863 14.3584C63.5215 13.8981 64.3525 13.668 65.2795 13.668C65.4201 13.668 65.5767 13.6712 65.7493 13.6775C65.9219 13.6839 66.0658 13.6903 66.1808 13.6967V15.4323C66.1041 15.4195 65.9699 15.4004 65.7781 15.3748C65.5863 15.3492 65.3786 15.3364 65.1548 15.3364C64.3877 15.3364 63.7037 15.4995 63.1028 15.8255C62.5082 16.1451 62.0384 16.5894 61.6932 17.1584C61.348 17.7273 61.1754 18.3762 61.1754 19.1049V28.6172H59.4685ZM73.9479 28.924C72.7397 28.924 71.6817 28.6044 70.774 27.9651C69.8662 27.3259 69.1566 26.4341 68.6452 25.2898C68.1402 24.1455 67.8877 22.8127 67.8877 21.2912C67.8877 19.7761 68.1402 18.4497 68.6452 17.3118C69.1566 16.1675 69.8694 15.2789 70.7835 14.646C71.6977 14.0068 72.7621 13.6871 73.9767 13.6871C74.8716 13.6871 75.6164 13.847 76.2109 14.1666C76.8054 14.4798 77.2817 14.8698 77.6397 15.3364C77.9977 15.8031 78.2757 16.257 78.4739 16.6981H78.6273V8.97895H80.3438V28.6172H78.6753V25.8843H78.4739C78.2757 26.3318 77.9945 26.7921 77.6301 27.2651C77.2657 27.7318 76.7831 28.125 76.1821 28.4446C75.5876 28.7642 74.8429 28.924 73.9479 28.924ZM74.1493 27.361C75.1018 27.361 75.9137 27.1021 76.5849 26.5843C77.2561 26.0601 77.7675 25.341 78.1191 24.4268C78.4771 23.5063 78.6561 22.4515 78.6561 21.2624C78.6561 20.0862 78.4803 19.0474 78.1287 18.146C77.7771 17.2383 77.2657 16.5287 76.5945 16.0173C75.9232 15.4995 75.1082 15.2406 74.1493 15.2406C73.1648 15.2406 72.3338 15.509 71.6561 16.046C70.9849 16.5766 70.4735 17.2958 70.1219 18.2036C69.7767 19.1113 69.6041 20.1309 69.6041 21.2624C69.6041 22.4067 69.7799 23.4391 70.1315 24.3597C70.4831 25.2802 70.9945 26.0122 71.6657 26.5556C72.3434 27.0925 73.1712 27.361 74.1493 27.361ZM91.1601 28.924C89.7857 28.924 88.5967 28.6044 87.593 27.9651C86.5894 27.3195 85.8127 26.4277 85.2629 25.2898C84.7195 24.1455 84.4478 22.8286 84.4478 21.3391C84.4478 19.8561 84.7195 18.5392 85.2629 17.3885C85.8127 16.2314 86.5702 15.3269 87.5355 14.6748C88.5072 14.0164 89.6291 13.6871 90.9012 13.6871C91.7003 13.6871 92.4706 13.8342 93.2122 14.1282C93.9537 14.4159 94.6186 14.8602 95.2067 15.4611C95.8012 16.0556 96.2711 16.8068 96.6163 17.7145C96.9615 18.6159 97.1341 19.6835 97.1341 20.9172V21.7611H85.6273V20.2556H95.3889C95.3889 19.3095 95.1971 18.4593 94.8135 17.7049C94.4364 16.9442 93.909 16.3433 93.2314 15.9022C92.5601 15.4611 91.7834 15.2406 90.9012 15.2406C89.9679 15.2406 89.1464 15.4899 88.4369 15.9885C87.7273 16.4871 87.1711 17.1456 86.7684 17.9638C86.372 18.7821 86.1707 19.6771 86.1643 20.6487V21.5501C86.1643 22.72 86.3656 23.7428 86.7684 24.6186C87.1775 25.488 87.756 26.1624 88.504 26.6419C89.2519 27.1213 90.1373 27.361 91.1601 27.361C91.8569 27.361 92.4674 27.2524 92.9916 27.035C93.5222 26.8177 93.9665 26.5268 94.3245 26.1624C94.6889 25.7916 94.9638 25.3857 95.1492 24.9446L96.7697 25.472C96.5459 26.0921 96.1784 26.6642 95.667 27.1884C95.1619 27.7126 94.5291 28.1345 93.7683 28.4542C93.014 28.7674 92.1446 28.924 91.1601 28.924ZM102.602 19.4118V28.6172H100.895V13.8885H102.554V16.1995H102.708C103.053 15.4451 103.59 14.841 104.319 14.3871C105.054 13.9269 105.962 13.6967 107.042 13.6967C108.033 13.6967 108.902 13.9045 109.65 14.32C110.404 14.7291 110.989 15.3332 111.405 16.1323C111.827 16.9314 112.038 17.9127 112.038 19.0761V28.6172H110.331V19.1816C110.331 17.9734 109.992 17.0177 109.314 16.3145C108.643 15.6113 107.742 15.2597 106.61 15.2597C105.837 15.2597 105.15 15.4259 104.549 15.7584C103.948 16.0908 103.472 16.5702 103.12 17.1967C102.775 17.8168 102.602 18.5551 102.602 19.4118ZM124.511 28.6172H122.631L129.775 8.97895H131.693L138.837 28.6172H136.957L130.801 11.3091H130.667L124.511 28.6172ZM125.863 21.0898H135.605V22.7008H125.863V21.0898ZM143.995 8.97895V28.6172H142.202V8.97895H143.995Z" fill="url(#paint0_linear_246_6785)"/>
<path d="M164.127 18.1818V20.1092C163.027 20.1092 162.26 20.3297 161.825 20.7708C161.397 21.2119 161.183 21.9247 161.183 22.9091V25.0379C161.183 26.2205 161.017 27.1666 160.684 27.8762C160.358 28.5922 159.898 29.1324 159.304 29.4968C158.715 29.8612 158.015 30.1041 157.204 30.2255C156.398 30.347 155.51 30.4077 154.538 30.4077V27.3488C155.292 27.3488 155.864 27.2498 156.254 27.0516C156.651 26.8598 156.919 26.5593 157.06 26.1502C157.2 25.7475 157.271 25.2393 157.271 24.6256V21.8256C157.271 21.3333 157.36 20.8699 157.539 20.4352C157.718 19.9941 158.051 19.6073 158.536 19.2749C159.022 18.9361 159.716 18.6708 160.617 18.479C161.519 18.2809 162.688 18.1818 164.127 18.1818ZM154.538 6.138C155.51 6.138 156.398 6.19873 157.204 6.32019C158.015 6.44165 158.715 6.68457 159.304 7.04896C159.898 7.41334 160.358 7.95352 160.684 8.66949C161.017 9.37908 161.183 10.3252 161.183 11.5078V13.627C161.183 14.6115 161.397 15.3242 161.825 15.7653C162.26 16.2064 163.027 16.427 164.127 16.427V18.3544C162.688 18.3544 161.519 18.2585 160.617 18.0667C159.716 17.8685 159.022 17.6032 158.536 17.2708C158.051 16.932 157.718 16.5452 157.539 16.1105C157.36 15.6695 157.271 15.206 157.271 14.7201V11.9202C157.271 11.3001 157.2 10.7887 157.06 10.3859C156.919 9.97679 156.651 9.67634 156.254 9.48456C155.864 9.28639 155.292 9.1873 154.538 9.1873V6.138ZM164.127 16.427V20.1092H160.684V16.427H164.127Z" fill="#6054E8"/>
<path d="M0.834242 18.3544V16.427C1.94017 16.427 2.70729 16.2064 3.1356 15.7653C3.56391 15.3242 3.77806 14.6115 3.77806 13.627V11.5078C3.77806 10.3252 3.94107 9.37908 4.2671 8.66949C4.59952 7.95352 5.05979 7.41334 5.64791 7.04896C6.24243 6.68457 6.94562 6.44165 7.75749 6.32019C8.56936 6.19873 9.45794 6.138 10.4232 6.138V9.1873C9.66889 9.1873 9.09355 9.28639 8.69721 9.48456C8.30726 9.67634 8.04196 9.97679 7.90132 10.3859C7.76069 10.7887 7.69037 11.3001 7.69037 11.9202V14.7201C7.69037 15.206 7.60087 15.6695 7.42187 16.1105C7.24288 16.5452 6.91046 16.932 6.42462 17.2708C5.93878 17.6032 5.24517 17.8685 4.34381 18.0667C3.44245 18.2585 2.27259 18.3544 0.834242 18.3544ZM10.4232 30.4077C9.45794 30.4077 8.56936 30.347 7.75749 30.2255C6.94562 30.1041 6.24243 29.8612 5.64791 29.4968C5.05979 29.1324 4.59952 28.5922 4.2671 27.8762C3.94107 27.1666 3.77806 26.2205 3.77806 25.0379V22.9091C3.77806 21.9247 3.56391 21.2119 3.1356 20.7708C2.70729 20.3297 1.94017 20.1092 0.834242 20.1092V18.1818C2.27259 18.1818 3.44245 18.2809 4.34381 18.479C5.24517 18.6708 5.93878 18.9361 6.42462 19.2749C6.91046 19.6073 7.24288 19.9941 7.42187 20.4352C7.60087 20.8699 7.69037 21.3333 7.69037 21.8256V24.6256C7.69037 25.2393 7.76069 25.7475 7.90132 26.1502C8.04196 26.5593 8.30726 26.8598 8.69721 27.0516C9.09355 27.2498 9.66889 27.3488 10.4232 27.3488V30.4077ZM0.834242 20.1092V16.427H4.27669V20.1092H0.834242Z" fill="#46D7D0"/>
<defs>
<linearGradient id="paint0_linear_246_6785" x1="18.4517" y1="19.1172" x2="147.452" y2="19.1172" gradientUnits="userSpaceOnUse">
<stop stop-color="#46D7D0"/>
<stop offset="1" stop-color="#6758FF"/>
</linearGradient>
</defs>
</svg>
