<svg width="16" height="18" viewBox="0 0 16 18" fill="none" xmlns="http://www.w3.org/2000/svg">
<mask id="mask0_1419_7418" style="mask-type:luminance" maskUnits="userSpaceOnUse" x="0" y="0" width="16" height="18">
<path d="M15.24 17.145H0V1.90735e-05H15.24V17.145Z" fill="white"/>
</mask>
<g mask="url(#mask0_1419_7418)">
<path d="M15.2395 12.8207V10.1267C15.2395 9.7971 14.8827 9.58812 14.5902 9.74624L7.83041 13.4101C7.69889 13.4818 7.54022 13.4818 7.4087 13.4101L3.52703 11.3062C3.38993 11.2319 3.22223 11.2354 3.08862 11.3158L0.673877 12.7657C0.384393 12.9398 0.394833 13.3579 0.69266 13.5176L7.3753 17.0927C7.50612 17.1628 7.6634 17.1622 7.79423 17.0927L15.0113 13.2017C15.1518 13.1261 15.2395 12.9788 15.2395 12.8207Z" fill="#46D7D0"/>
<path d="M15.24 8.52045V5.47416C15.24 5.15717 14.9066 4.94743 14.6157 5.08154L11.7201 6.41714C11.5921 6.47638 11.4439 6.47085 11.3207 6.40285L3.76268 2.22499C3.63394 2.15412 3.47805 2.15146 3.34724 2.21813L0.236601 3.81033C0.091154 3.88463 0 4.03322 0 4.19552V11.7828C0 12.1205 0.373684 12.3289 0.665969 12.1535L3.08905 10.6996C3.22267 10.619 3.39039 10.6156 3.52747 10.6899L7.40914 12.7939C7.54068 12.8654 7.69932 12.8654 7.83084 12.7939L15.0124 8.90164C15.1529 8.82525 15.24 8.67932 15.24 8.52045Z" fill="#6758FF"/>
<path d="M14.7359 4.36235C14.9461 4.26729 14.9586 3.97773 14.758 3.86438L7.99827 0.0538099C7.86953 -0.0176276 7.71294 -0.0197215 7.58212 0.0469535L4.92451 1.4075C4.61415 1.56638 4.60718 2.00244 4.91198 2.17084L11.319 5.71185C11.4422 5.77986 11.5904 5.78538 11.7184 5.72614L14.7359 4.36235Z" fill="#46D7D0"/>
</g>
</svg>
