<svg width="40" height="85" viewBox="0 0 40 85" fill="none" xmlns="http://www.w3.org/2000/svg">
<g clip-path="url(#clip0_1419_7387)">
<rect width="2.86" height="140" transform="matrix(1 0 0 -1 0 23.79)" fill="#6758FF"/>
<rect width="2.86" height="139" transform="matrix(1 0 0 -1 6 23.79)" fill="#6758FF"/>
<rect width="2.86" height="139" transform="matrix(1 0 0 -1 12.3809 23.79)" fill="#6758FF"/>
<rect width="2.86" height="139" transform="matrix(1 0 0 -1 18.5801 23.79)" fill="#6758FF"/>
<rect width="2.86" height="139" transform="matrix(1 0 0 -1 24.7695 23.79)" fill="#6758FF"/>
<rect width="2.86" height="139" transform="matrix(1 0 0 -1 30.9492 23.79)" fill="#6758FF"/>
<rect width="2.86" height="139" transform="matrix(1 0 0 -1 37.1406 23.79)" fill="#6758FF"/>
<rect y="23.79" width="2.85806" height="61.2102" fill="url(#paint0_linear_1419_7387)"/>
<rect x="6.00195" y="23.79" width="2.85806" height="31.2005" fill="url(#paint1_linear_1419_7387)"/>
<rect x="6.19141" y="74.5205" width="2.86092" height="10.4796" fill="#46D7D0"/>
<rect x="12.3848" y="23.79" width="2.85806" height="28.5806" fill="url(#paint2_linear_1419_7387)"/>
<rect x="12.3848" y="77.3789" width="2.86092" height="7.6215" fill="#46D7D0"/>
<rect x="18.5781" y="23.79" width="2.85806" height="31.2005" fill="url(#paint3_linear_1419_7387)"/>
<rect x="18.5762" y="74.5205" width="2.86092" height="10.4796" fill="#46D7D0"/>
<rect x="24.7676" y="23.79" width="2.85806" height="61.2102" fill="url(#paint4_linear_1419_7387)"/>
<rect x="30.9492" y="23.79" width="2.85806" height="61.2102" fill="url(#paint5_linear_1419_7387)"/>
<rect x="37.1426" y="23.79" width="2.85806" height="61.2102" fill="url(#paint6_linear_1419_7387)"/>
<mask id="mask0_1419_7387" style="mask-type:luminance" maskUnits="userSpaceOnUse" x="6" y="56" width="16" height="18">
<path d="M21.24 73.145H6V56H21.24V73.145Z" fill="white"/>
</mask>
<g mask="url(#mask0_1419_7387)">
<path d="M21.2395 68.8207V66.1267C21.2395 65.7971 20.8827 65.5881 20.5902 65.7462L13.8304 69.4101C13.6989 69.4818 13.5402 69.4818 13.4087 69.4101L9.52703 67.3062C9.38993 67.2319 9.22223 67.2354 9.08862 67.3158L6.67388 68.7657C6.38439 68.9398 6.39483 69.3579 6.69266 69.5176L13.3753 73.0927C13.5061 73.1628 13.6634 73.1622 13.7942 73.0927L21.0113 69.2017C21.1518 69.1261 21.2395 68.9788 21.2395 68.8207Z" fill="#46D7D0"/>
<path d="M21.24 64.5204V61.4742C21.24 61.1572 20.9066 60.9474 20.6157 61.0815L17.7201 62.4171C17.5921 62.4764 17.4439 62.4709 17.3207 62.4028L9.76268 58.225C9.63394 58.1541 9.47805 58.1515 9.34724 58.2181L6.2366 59.8103C6.09115 59.8846 6 60.0332 6 60.1955V67.7828C6 68.1205 6.37368 68.3289 6.66597 68.1535L9.08905 66.6996C9.22267 66.619 9.39039 66.6156 9.52747 66.6899L13.4091 68.7939C13.5407 68.8654 13.6993 68.8654 13.8308 68.7939L21.0124 64.9016C21.1529 64.8252 21.24 64.6793 21.24 64.5204Z" fill="#6758FF"/>
<path d="M20.7359 60.3624C20.9461 60.2673 20.9586 59.9777 20.758 59.8644L13.9983 56.0538C13.8695 55.9824 13.7129 55.9803 13.5821 56.047L10.9245 57.4075C10.6141 57.5664 10.6072 58.0024 10.912 58.1708L17.319 61.7119C17.4422 61.7799 17.5904 61.7854 17.7184 61.7261L20.7359 60.3624Z" fill="#46D7D0"/>
</g>
</g>
<defs>
<linearGradient id="paint0_linear_1419_7387" x1="1.42903" y1="23.79" x2="1.42903" y2="85.0002" gradientUnits="userSpaceOnUse">
<stop stop-color="#6758FF"/>
<stop offset="1" stop-color="#46D7D0"/>
</linearGradient>
<linearGradient id="paint1_linear_1419_7387" x1="7.43098" y1="23.79" x2="7.43098" y2="54.9905" gradientUnits="userSpaceOnUse">
<stop stop-color="#6758FF"/>
<stop offset="1" stop-color="#46D7D0"/>
</linearGradient>
<linearGradient id="paint2_linear_1419_7387" x1="13.8138" y1="23.79" x2="13.8138" y2="52.3707" gradientUnits="userSpaceOnUse">
<stop stop-color="#6758FF"/>
<stop offset="1" stop-color="#46D7D0"/>
</linearGradient>
<linearGradient id="paint3_linear_1419_7387" x1="20.0072" y1="23.79" x2="20.0072" y2="54.9905" gradientUnits="userSpaceOnUse">
<stop stop-color="#6758FF"/>
<stop offset="1" stop-color="#46D7D0"/>
</linearGradient>
<linearGradient id="paint4_linear_1419_7387" x1="26.1966" y1="23.79" x2="26.1966" y2="85.0002" gradientUnits="userSpaceOnUse">
<stop stop-color="#6758FF"/>
<stop offset="1" stop-color="#46D7D0"/>
</linearGradient>
<linearGradient id="paint5_linear_1419_7387" x1="32.3782" y1="23.79" x2="32.3782" y2="85.0002" gradientUnits="userSpaceOnUse">
<stop stop-color="#6758FF"/>
<stop offset="1" stop-color="#46D7D0"/>
</linearGradient>
<linearGradient id="paint6_linear_1419_7387" x1="38.5716" y1="23.79" x2="38.5716" y2="85.0002" gradientUnits="userSpaceOnUse">
<stop stop-color="#6758FF"/>
<stop offset="1" stop-color="#46D7D0"/>
</linearGradient>
<clipPath id="clip0_1419_7387">
<rect width="40" height="85" fill="white"/>
</clipPath>
</defs>
</svg>
